<?xml version="1.0" encoding="UTF-8"?>
<svg width="63px" height="63px" viewBox="0 0 63 63" version="1.1" xmlns="http://www.w3.org/2000/svg" xmlns:xlink="http://www.w3.org/1999/xlink">
    <!-- Generator: Sketch 61.2 (89653) - https://sketch.com -->
    <title>totop</title>
    <desc>Created with Sketch.</desc>
    <g id="Page-1" stroke="none" stroke-width="1" fill="none" fill-rule="evenodd">
        <g id="totop" fill-rule="nonzero">
            <rect id="Rectangle" fill="#FFFFFF" x="14" y="14" width="35" height="35"></rect>
            <path d="M31.5000001,-1.37691e-06 C14.1038,-1.37691e-06 5.36028004e-08,14.1038 5.36028004e-08,31.4999986 C5.36028004e-08,48.8962 14.1038,62.9999986 31.5000001,62.9999986 C48.8962,62.9999986 63.0000001,48.8962 63.0000001,31.4999986 C63.0000001,14.1038 48.8962,-1.37691e-06 31.5000001,-1.37691e-06 Z M45.3358,32.2042 C45.1117,32.4302 44.8452,32.6098 44.5517,32.7327 C44.2582,32.8557 43.9433,32.9197 43.625,32.9209 C43.3068,32.9222 42.9914,32.8608 42.6969,32.7401 C42.4024,32.6195 42.1345,32.442 41.9086,32.2178 L33.9231,24.2944 L33.9231,44.524 C33.9231,45.1667 33.6678,45.783 33.2134,46.2374 C32.759,46.6918 32.1426,46.9471 31.5,46.9471 C30.8574,46.9471 30.241,46.6918 29.7866,46.2374 C29.3322,45.783 29.0769,45.1667 29.0769,44.524 L29.0769,24.2944 L21.0914,32.2178 C20.8652,32.442 20.5972,32.6194 20.3025,32.7399 C20.0078,32.8604 19.6923,32.9218 19.3739,32.9204 C19.0555,32.919 18.7405,32.8549 18.4469,32.7317 C18.1533,32.6086 17.8869,32.4288 17.6627,32.2027 C17.4386,31.9766 17.2612,31.7085 17.1406,31.4138 C17.0201,31.1191 16.9588,30.8036 16.9601766,30.4852 C16.9616,30.1668 17.0257,29.8519 17.1488,29.5583 C17.272,29.2646 17.4517,28.9982 17.6779,28.774 L29.7932,16.751 C30.2471,16.3007 30.8606,16.0479 31.5,16.0479 C32.1394,16.0479 32.7529,16.3007 33.2068,16.751 L45.3221,28.774 C45.5486,28.9982 45.7285,29.2648 45.8518,29.5586 C45.975,29.8525 46.0391,30.1677 46.0404172,30.4863 C46.0416,30.8049 45.9801,31.1206 45.8592,31.4154 C45.7382,31.7102 45.5604,31.9782 45.3358,32.2042 L45.3358,32.2042 Z" id="Shape" fill="#F39800"></path>
        </g>
    </g>
</svg>